<svg xmlns="http://www.w3.org/2000/svg" xmlns:xlink="http://www.w3.org/1999/xlink" width="86" height="69" viewBox="0 0 86 69">
  <defs>
    <clipPath id="clip-icon-sass">
      <rect width="86" height="69"/>
    </clipPath>
  </defs>
  <g id="icon-sass" clip-path="url(#clip-icon-sass)">
    <path id="Icon_awesome-sass" data-name="Icon awesome-sass" d="M40.088,49.326C40.049,49.405,40.009,49.469,40.088,49.326ZM73.176,37.771a17.42,17.42,0,0,0-7.7,1.793,16.358,16.358,0,0,1-1.727-4,10.671,10.671,0,0,1-.146-3.36,28.3,28.3,0,0,1,1.009-3.613c-.013-.146-.186-.877-1.9-.89s-3.188.332-3.359.784a16.313,16.313,0,0,0-.7,2.537c-.305,1.554-3.425,7.106-5.192,10A10.312,10.312,0,0,1,52.274,38.1a10.671,10.671,0,0,1-.146-3.36,28.3,28.3,0,0,1,1.009-3.613c-.013-.146-.186-.877-1.9-.89s-3.188.332-3.36.784-.359,1.514-.7,2.537-4.5,10.267-5.589,12.67c-.558,1.222-1.036,2.2-1.381,2.869-.053.106-.093.173-.12.226.04-.066.066-.133.066-.106-.292.571-.465.89-.465.89v.013c-.226.425-.478.81-.6.81a5.51,5.51,0,0,1,.04-2.643c.624-3.214,2.1-8.208,2.085-8.381-.013-.093.279-.956-.97-1.421a1.563,1.563,0,0,0-1.753.292c-.106,0-.186.266-.186.266s1.341-5.631-2.575-5.631c-2.444,0-5.844,2.683-7.515,5.113-1.049.571-3.32,1.806-5.711,3.121-.916.5-1.859,1.023-2.749,1.514-.066-.066-.12-.133-.186-.2C14.817,37.89,6.04,34.3,6.412,27.491c.133-2.484,1-9,16.877-16.921C36.3,4.089,46.71,5.869,48.5,9.827c2.577,5.645-5.564,16.15-19.08,17.664-5.152.571-7.86-1.421-8.537-2.165-.7-.784-.81-.823-1.076-.677-.438.239-.159.93,0,1.341A8,8,0,0,0,24.7,29.829c2.484.81,8.524,1.262,15.827-1.567C48.728,25.1,55.115,16.295,53.242,8.924,51.335,1.433,38.914-1.024,27.17,3.146,20.172,5.63,12.6,9.535,7.16,14.621.693,20.678-.342,25.95.083,28.155,1.6,35.978,12.378,41.078,16.693,44.85c-.213.12-.412.226-.6.332C13.932,46.258,5.712,50.561,3.655,55.1c-2.324,5.153.385,8.845,2.164,9.35,5.55,1.541,11.233-1.235,14.287-5.791s2.683-10.506,1.275-13.215c-.013-.04-.04-.066-.053-.106.558-.332,1.129-.664,1.7-1,1.1-.651,2.177-1.248,3.12-1.766a20.629,20.629,0,0,0-1.116,5.658c-.239,2.922.97,6.707,2.537,8.195a2.787,2.787,0,0,0,2.044.664c1.833,0,2.656-1.514,3.571-3.32,1.129-2.2,2.125-4.768,2.125-4.768S34.06,55.94,37.473,55.94c1.247,0,2.5-1.607,3.055-2.43v.013s.027-.053.093-.159c.133-.2.2-.319.2-.319V53c.5-.863,1.607-2.842,3.266-6.109,2.152-4.223,4.209-9.5,4.209-9.5a26.728,26.728,0,0,0,.823,3.427A32.081,32.081,0,0,0,50.9,44.81c-.5.691-.81,1.089-.81,1.089a.041.041,0,0,0,.013.027c-.4.531-.85,1.1-1.315,1.66A46.878,46.878,0,0,0,44.8,52.58a1.357,1.357,0,0,0,.372,1.82,3.228,3.228,0,0,0,2.084.332,9.21,9.21,0,0,0,3.121-.717,10.917,10.917,0,0,0,2.682-1.408,6,6,0,0,0,2.577-5.286,11,11,0,0,0-.97-3.745c.146-.213.305-.438.452-.664a70.6,70.6,0,0,0,4.66-8.051,26.727,26.727,0,0,0,.823,3.427A23.427,23.427,0,0,0,62.116,41.7a14.6,14.6,0,0,0-4.528,5.857c-.983,2.829-.213,4.1,1.235,4.4a4.456,4.456,0,0,0,2.271-.465,10.553,10.553,0,0,0,2.867-1.474c1.66-1.222,3.266-2.935,3.16-5.259a9.881,9.881,0,0,0-.717-3.108,16.211,16.211,0,0,1,8.246-.956c7.4.863,8.843,5.485,8.564,7.411a4.91,4.91,0,0,1-2.351,3.32c-.518.319-.677.438-.638.677.066.345.305.332.744.252a5.77,5.77,0,0,0,4.023-5.14c.213-4.516-4.129-9.483-11.82-9.443Zm-57,19.218c-2.442,2.67-5.869,3.679-7.342,2.829-1.58-.919-.956-4.848,2.057-7.693a39.352,39.352,0,0,1,5.763-4.3c.359-.213.877-.531,1.514-.916.106-.066.159-.093.159-.093.12-.08.252-.146.385-.226a10.6,10.6,0,0,1-2.537,10.4ZM34.02,44.85c-.85,2.085-2.642,7.4-3.731,7.119-.93-.239-1.5-4.29-.186-8.274a18.318,18.318,0,0,1,2.909-5.326c1.34-1.5,2.814-1.979,3.16-1.381C36.637,37.771,34.551,43.548,34.02,44.85Zm14.742,7.039c-.359.186-.691.305-.85.213-.12-.066.146-.319.146-.319S49.9,49.8,50.635,48.9c.425-.531.916-1.155,1.446-1.846,0,.066.013.133.013.213-.017,2.377-2.3,3.984-3.336,4.622ZM60.129,49.3c-.266-.186-.226-.81.664-2.749A10.323,10.323,0,0,1,63.316,43.3a4.805,4.805,0,0,1,.252,1.434A4.683,4.683,0,0,1,60.13,49.3Z" transform="translate(1 1.875)"/>
  </g>
</svg>
